<svg version="1.1" id="Layer_1" xmlns="http://www.w3.org/2000/svg" xmlns:xlink="http://www.w3.org/1999/xlink" x="0px" y="0px"
	 width="100%" viewBox="0 0 1181 1181" enable-background="new 0 0 1181 1181" xml:space="preserve">
<path fill="#FFFFFF" opacity="1.000000" stroke="none" 
	d="
M656.000000,1182.000000 
	C437.333344,1182.000000 219.166672,1182.000000 1.000000,1182.000000 
	C1.000000,788.333313 1.000000,394.666656 1.000000,1.000000 
	C394.666656,1.000000 788.333313,1.000000 1182.000000,1.000000 
	C1182.000000,394.666656 1182.000000,788.333313 1182.000000,1182.000000 
	C1006.833313,1182.000000 831.666687,1182.000000 656.000000,1182.000000 
M797.988464,1065.483765 
	C871.255066,1012.267578 944.531250,959.064453 1017.733582,905.760071 
	C1019.575806,904.418640 1021.217651,902.159851 1021.924255,899.993347 
	C1055.024780,798.499634 1088.027100,696.973877 1120.909302,595.409180 
	C1121.652344,593.114319 1121.490723,590.134094 1120.734985,587.803040 
	C1088.280640,487.701141 1055.666382,387.651093 1023.286499,287.525208 
	C1021.642273,282.440918 1019.055969,278.975586 1014.851074,275.926910 
	C929.679382,214.174149 844.587708,152.311142 759.398621,90.582428 
	C757.308472,89.067902 754.293640,88.105453 751.708618,88.102470 
	C645.210693,87.979607 538.712708,87.981422 432.214752,88.089813 
	C429.770142,88.092300 426.903076,88.913132 424.944061,90.333138 
	C338.957306,152.661407 253.036240,215.080475 167.208405,277.627411 
	C164.758987,279.412415 162.598099,282.435455 161.654587,285.322968 
	C128.712479,386.138977 95.915947,487.002655 63.231640,587.902588 
	C62.434956,590.362061 62.451290,593.533203 63.249279,595.996338 
	C96.047729,697.236389 128.965210,798.437927 161.984192,899.606262 
	C162.741074,901.925354 164.412689,904.388123 166.366272,905.810791 
	C252.484131,968.527893 338.673889,1031.146240 424.923920,1093.681519 
	C426.775940,1095.024292 429.429382,1095.917236 431.710052,1095.919434 
	C538.541199,1096.023560 645.372437,1096.019043 752.203552,1095.909302 
	C754.478394,1095.906860 757.107361,1095.031616 758.968567,1093.713013 
	C771.871582,1084.571289 784.614624,1075.203857 797.988464,1065.483765 
z"/>
<path fill="#0E140D" opacity="1.000000" stroke="none" 
	d="
M797.698730,1065.696289 
	C784.614624,1075.203857 771.871582,1084.571289 758.968567,1093.713013 
	C757.107361,1095.031616 754.478394,1095.906860 752.203552,1095.909302 
	C645.372437,1096.019043 538.541199,1096.023560 431.710052,1095.919434 
	C429.429382,1095.917236 426.775940,1095.024292 424.923920,1093.681519 
	C338.673889,1031.146240 252.484131,968.527893 166.366272,905.810791 
	C164.412689,904.388123 162.741074,901.925354 161.984192,899.606262 
	C128.965210,798.437927 96.047729,697.236389 63.249279,595.996338 
	C62.451290,593.533203 62.434956,590.362061 63.231640,587.902588 
	C95.915947,487.002655 128.712479,386.138977 161.654587,285.322968 
	C162.598099,282.435455 164.758987,279.412415 167.208405,277.627411 
	C253.036240,215.080475 338.957306,152.661407 424.944061,90.333138 
	C426.903076,88.913132 429.770142,88.092300 432.214752,88.089813 
	C538.712708,87.981422 645.210693,87.979607 751.708618,88.102470 
	C754.293640,88.105453 757.308472,89.067902 759.398621,90.582428 
	C844.587708,152.311142 929.679382,214.174149 1014.851074,275.926910 
	C1019.055969,278.975586 1021.642273,282.440918 1023.286499,287.525208 
	C1055.666382,387.651093 1088.280640,487.701141 1120.734985,587.803040 
	C1121.490723,590.134094 1121.652344,593.114319 1120.909302,595.409180 
	C1088.027100,696.973877 1055.024780,798.499634 1021.924255,899.993347 
	C1021.217651,902.159851 1019.575806,904.418640 1017.733582,905.760071 
	C944.531250,959.064453 871.255066,1012.267578 797.698730,1065.696289 
M632.246155,603.224060 
	C625.135315,591.204468 618.281799,579.020020 610.750793,567.269714 
	C608.598877,563.912170 604.674744,559.840149 601.232117,559.505859 
	C590.758057,558.488647 580.122131,559.137085 569.598389,559.137085 
	C569.598389,594.051758 569.598389,628.574585 569.598389,663.189392 
	C579.701782,663.189392 589.460632,663.189392 599.755737,663.189392 
	C599.755737,643.413574 599.755737,623.914612 599.755737,604.415649 
	C601.494263,605.489441 602.391602,606.789856 603.222656,608.131226 
	C612.854431,623.676758 622.474670,639.229553 632.101562,654.778076 
	C634.506714,658.662537 637.163208,662.728027 642.118835,662.951782 
	C650.889954,663.347900 659.691895,663.062866 668.673706,663.062866 
	C668.673706,628.416443 668.673706,593.864258 668.673706,559.167114 
	C658.586975,559.167114 648.729370,559.167114 638.345581,559.167114 
	C638.345581,576.827576 638.345581,594.158081 638.345581,611.488586 
	C638.030029,611.572510 637.714478,611.656494 637.398926,611.740417 
	C635.825012,609.099609 634.251038,606.458862 632.246155,603.224060 
M270.511292,484.993927 
	C263.723083,473.553955 256.914398,462.126038 250.157654,450.667480 
	C247.762665,446.605896 244.691620,443.196411 239.748978,443.069397 
	C229.634491,442.809479 219.508667,442.991425 209.296677,442.991425 
	C209.296677,477.907135 209.296677,512.593750 209.296677,547.072632 
	C219.417236,547.072632 229.159424,547.072632 239.391754,547.072632 
	C239.391754,527.238098 239.391754,507.742432 239.391754,486.992889 
	C241.026642,489.452515 241.962585,490.781067 242.817963,492.159637 
	C252.551971,507.847351 262.116699,523.644043 272.129791,539.151306 
	C274.157104,542.291016 277.658478,546.189758 280.839172,546.547485 
	C289.792786,547.554565 298.933380,546.899231 307.925659,546.899231 
	C307.925659,512.164062 307.925659,477.613434 307.925659,443.116058 
	C297.832153,443.116058 288.084991,443.116058 277.757874,443.116058 
	C277.757874,460.861511 277.757874,478.332428 277.757874,497.141266 
	C274.974365,492.459259 272.938904,489.035522 270.511292,484.993927 
M445.510223,755.992310 
	C444.344604,755.992920 443.178986,755.996155 442.013367,755.993835 
	C430.490936,755.970947 430.020752,756.987732 429.594025,745.541992 
	C429.578522,745.126343 429.118317,744.727234 428.956970,744.467773 
	C419.353882,744.467773 409.923553,744.467773 399.575562,744.467773 
	C400.469788,752.058105 400.825287,759.369263 402.299103,766.447571 
	C403.964783,774.447327 409.377991,778.689392 417.627045,778.848022 
	C435.438324,779.190674 453.258850,779.388733 471.071259,779.212097 
	C482.037659,779.103394 487.989929,774.117981 490.824615,763.633972 
	C493.519257,753.667969 493.668732,743.529541 491.799805,733.437622 
	C489.929321,723.337402 484.666199,718.478394 474.580475,716.841614 
	C472.283600,716.468872 469.969849,716.194702 467.659332,715.912292 
	C457.257812,714.640991 446.855377,713.376831 436.451813,712.122559 
	C430.048096,711.350525 432.378510,706.372314 432.049194,702.793518 
	C431.689056,698.880310 434.291809,698.132019 437.511963,698.168152 
	C442.174225,698.220337 446.837585,698.167358 451.500488,698.167053 
	C461.169342,698.166382 461.165894,698.168762 462.044830,707.606018 
	C462.071350,707.890625 462.339813,708.152649 462.544128,708.510376 
	C471.937958,708.510376 481.366699,708.510376 491.433136,708.510376 
	C491.105469,703.656677 491.142914,699.009338 490.422119,694.482788 
	C487.988983,679.202637 483.068878,675.022278 467.488495,674.895691 
	C453.001251,674.778015 438.511200,674.775330 424.024323,674.918640 
	C412.787628,675.029846 406.961029,679.519592 403.583344,690.347412 
	C400.640717,699.780701 400.799713,709.444641 402.418396,719.009644 
	C404.245209,729.804016 409.102264,734.661072 420.042542,736.371338 
	C431.864716,738.219421 443.807037,739.286682 455.677246,740.844543 
	C462.009949,741.675659 462.579254,743.008301 462.436829,749.919312 
	C462.325378,755.326660 459.411194,756.255005 454.989319,756.006165 
	C452.167511,755.847351 449.328979,755.986633 445.510223,755.992310 
M281.486115,559.770203 
	C279.183258,559.480469 276.881531,558.950684 274.577362,558.939941 
	C259.254639,558.868408 243.929779,558.773499 228.608887,558.958313 
	C218.235977,559.083374 211.623367,563.545410 209.231842,573.601257 
	C207.414719,581.241821 206.930450,589.379700 207.087921,597.271606 
	C207.402725,613.048950 214.252274,619.601807 229.943695,621.119446 
	C240.868286,622.176025 251.742172,623.748596 262.648254,625.008240 
	C268.630585,625.699219 267.645264,630.170288 267.700043,634.060181 
	C267.756683,638.081360 266.021820,640.210876 261.662018,640.010620 
	C257.175018,639.804565 252.670151,639.998657 248.173111,639.997986 
	C236.241486,639.996338 236.241486,639.992065 234.531769,628.415649 
	C224.996613,628.415649 215.443359,628.415649 205.006241,628.415649 
	C205.800858,635.851074 206.036636,643.015137 207.441818,649.942017 
	C209.169601,658.459045 214.515228,662.834229 223.359390,663.010864 
	C241.171463,663.366760 258.998474,663.480347 276.810028,663.166382 
	C287.563019,662.976868 293.176941,658.026611 296.036743,647.652527 
	C298.878021,637.345764 298.873505,626.886108 296.848969,616.487061 
	C295.063232,607.314575 289.593231,602.175537 280.361847,600.902039 
	C267.510437,599.129333 254.613831,597.681763 241.731384,596.138184 
	C235.821579,595.430115 237.348038,590.895752 237.180389,587.320251 
	C237.003372,583.544434 238.979568,581.994690 242.741547,582.125305 
	C247.399277,582.287170 252.067505,582.132568 256.731140,582.141968 
	C266.274200,582.161194 266.270538,582.169067 267.241943,591.575562 
	C267.270752,591.854431 267.565033,592.105957 267.750763,592.393860 
	C277.319214,592.393860 286.882965,592.393860 297.084320,592.393860 
	C296.352386,585.894836 296.034882,579.736877 294.884888,573.738525 
	C293.551056,566.781189 289.836823,561.473755 281.486115,559.770203 
M541.488098,639.256897 
	C528.233704,639.256897 514.979248,639.256897 501.715881,639.256897 
	C501.715881,633.019287 501.715881,627.478821 501.715881,621.491333 
	C514.695007,621.491333 527.295288,621.491333 539.902954,621.491333 
	C539.902954,613.810120 539.902954,606.591858 539.902954,598.995361 
	C526.934021,598.995361 514.330444,598.995361 501.556519,598.995361 
	C501.556519,593.522034 501.556519,588.437073 501.556519,582.806274 
	C519.482300,582.806274 537.196899,582.806274 554.693604,582.806274 
	C554.693604,574.488403 554.693604,566.719299 554.693604,559.161377 
	C526.150024,559.161377 497.917419,559.161377 469.710449,559.161377 
	C469.710449,594.027405 469.710449,628.562622 469.710449,663.157471 
	C498.311676,663.157471 526.540588,663.157471 554.695129,663.157471 
	C554.695129,655.091675 554.695129,647.341309 554.695129,639.257324 
	C550.424011,639.257324 546.453308,639.257324 541.488098,639.256897 
M861.498718,583.005981 
	C867.260193,583.005981 873.021606,583.005981 878.676941,583.005981 
	C878.676941,574.621765 878.676941,566.872070 878.676941,559.079102 
	C850.159363,559.079102 821.925293,559.079102 793.501709,559.079102 
	C793.501709,593.884644 793.501709,628.426758 793.501709,663.217346 
	C821.989990,663.217346 850.231873,663.217346 878.575745,663.217346 
	C878.575745,655.198730 878.575745,647.350647 878.575745,638.992981 
	C860.621521,638.992981 843.058777,638.992981 825.558105,638.992981 
	C825.558105,633.031372 825.558105,627.590637 825.558105,621.560669 
	C838.480774,621.560669 851.207458,621.560669 863.905640,621.560669 
	C863.905640,613.750916 863.905640,606.540161 863.905640,599.016235 
	C850.917542,599.016235 838.303406,599.016235 825.526123,599.016235 
	C825.526123,593.588806 825.526123,588.482910 825.526123,583.005981 
	C837.220642,583.005981 848.859985,583.005981 861.498718,583.005981 
M335.173981,702.719727 
	C334.535767,699.439758 336.188995,698.909546 339.082672,698.945557 
	C350.571655,699.088562 362.063446,699.003723 373.554199,699.003418 
	C378.476562,699.003296 383.398895,699.003357 388.323486,699.003357 
	C388.323486,690.623108 388.323486,682.885254 388.323486,675.170288 
	C359.771210,675.170288 331.547852,675.170288 303.343262,675.170288 
	C303.343262,710.017639 303.343262,744.557861 303.343262,778.863159 
	C331.839050,778.863159 360.031250,778.863159 388.288239,778.863159 
	C388.288239,770.711975 388.288239,763.152771 388.288239,755.207153 
	C370.511505,755.207153 353.084106,755.207153 335.406799,755.207153 
	C335.406799,749.234924 335.406799,743.656372 335.406799,737.513794 
	C348.332001,737.513794 361.067474,737.513794 373.704224,737.513794 
	C373.704224,729.722229 373.704224,722.500244 373.704224,714.918396 
	C360.729401,714.918396 348.142944,714.918396 335.170288,714.918396 
	C335.170288,710.925781 335.170288,707.296570 335.173981,702.719727 
M362.500000,558.835815 
	C354.503082,558.854004 346.504303,558.769714 338.509613,558.912964 
	C324.447357,559.164978 316.617584,564.682312 313.272308,578.389771 
	C311.082855,587.361206 310.061310,596.743591 309.646912,605.992554 
	C309.028442,619.797180 309.321411,633.676575 314.164551,646.925476 
	C317.505005,656.063599 323.560211,662.638062 333.755219,662.910950 
	C350.561951,663.360840 367.397827,663.354675 384.204468,662.906067 
	C392.488251,662.684937 399.276093,658.324707 401.358704,650.032593 
	C403.634827,640.970032 404.426361,631.534668 405.916382,621.930664 
	C394.813385,621.930664 385.081787,621.930664 375.264832,621.930664 
	C374.812439,626.076172 374.420624,630.025146 373.939453,633.963257 
	C373.546417,637.179993 371.999359,639.109619 368.416626,639.049805 
	C362.087616,638.944092 355.754730,638.938416 349.425476,639.029724 
	C345.961365,639.079651 344.104065,637.533142 343.784729,634.128113 
	C343.334473,629.327209 342.511261,624.517334 342.576721,619.721252 
	C342.719635,609.250671 343.271576,598.784058 343.764984,588.320862 
	C343.937531,584.661743 346.191986,583.079712 349.750854,583.094299 
	C355.748383,583.118835 361.746552,583.147339 367.743500,583.083984 
	C371.571136,583.043457 373.630096,584.792114 374.006531,588.624939 
	C374.375305,592.380066 374.849854,596.124817 375.272400,599.825073 
	C385.297211,599.825073 395.027405,599.825073 405.518890,599.825073 
	C404.577789,591.711243 404.238892,583.865662 402.654999,576.280029 
	C400.242340,564.725525 393.386536,559.456726 381.489929,559.003601 
	C375.499847,558.775513 369.497040,558.881104 362.500000,558.835815 
M700.702454,560.919067 
	C692.865356,564.151978 688.687927,570.705627 687.194641,578.372681 
	C685.201111,588.608032 683.844360,599.072388 683.443298,609.485779 
	C682.963562,621.940613 683.615356,634.470459 687.901855,646.443726 
	C691.248108,655.790710 697.191345,662.620850 707.628479,662.907959 
	C724.438904,663.370300 741.280212,663.349426 758.090881,662.890198 
	C766.362244,662.664246 773.158691,658.380310 775.221680,650.009155 
	C777.457520,640.936523 778.324219,631.526489 779.832886,621.979614 
	C768.715759,621.979614 758.976685,621.979614 749.158752,621.979614 
	C748.718201,626.177673 748.370178,630.132751 747.869202,634.068359 
	C747.458130,637.297546 745.805847,639.172913 742.236267,639.044067 
	C738.575500,638.911865 734.905457,639.042236 731.239502,639.043884 
	C717.731079,639.049927 717.340210,639.062988 716.818909,625.595764 
	C716.375305,614.134155 716.754944,602.624268 717.185608,591.151306 
	C717.445618,584.222351 718.958435,583.136719 725.782837,583.092896 
	C730.948547,583.059753 736.119080,583.231445 741.279358,583.063171 
	C745.702026,582.918945 747.646057,585.053284 748.006470,589.234131 
	C748.315369,592.817322 748.798157,596.385437 749.182373,599.769775 
	C759.279663,599.769775 769.015198,599.769775 779.343384,599.769775 
	C778.561157,592.427856 778.111633,585.456421 777.023682,578.586060 
	C774.940308,565.429504 767.957031,559.235046 754.725037,559.010742 
	C740.065796,558.762268 725.397644,558.870789 710.736145,559.049988 
	C707.637451,559.087891 704.550720,560.104919 700.702454,560.919067 
M859.552368,768.979675 
	C850.020874,740.337646 840.508179,711.689331 830.945190,683.057861 
	C828.401367,675.441895 826.778503,674.329895 818.609863,674.280823 
	C811.117859,674.235779 803.625183,674.231934 796.133240,674.278809 
	C788.061523,674.329285 786.530518,675.357117 783.892212,683.162170 
	C778.472168,699.196594 773.185852,715.276306 767.836975,731.334839 
	C762.559021,747.180725 757.271851,763.023560 751.868469,779.228210 
	C762.804810,779.228210 773.206421,779.228210 783.861267,779.228210 
	C786.048035,771.787231 788.223816,764.383423 790.369873,757.081055 
	C801.313904,757.081055 811.780823,757.081055 822.549988,757.081055 
	C824.757935,764.512268 826.957336,771.914734 829.085754,779.078125 
	C840.586914,779.078125 851.616272,779.078125 862.849243,779.078125 
	C861.765747,775.693176 860.808411,772.702515 859.552368,768.979675 
M685.668030,676.666260 
	C684.984436,676.073303 684.305908,674.970581 683.616516,674.963745 
	C672.676025,674.855347 661.734253,674.887451 650.767700,674.887451 
	C650.767700,675.814270 650.644897,676.342529 650.785278,676.787781 
	C660.815613,708.598999 670.860779,740.405579 680.922119,772.206970 
	C682.668091,777.725342 686.588989,780.078552 692.265808,780.015137 
	C699.593018,779.933289 706.921875,779.998718 714.250000,779.994080 
	C724.837646,779.987305 726.811218,778.553711 729.991760,768.551880 
	C737.581177,744.685669 745.181519,720.822815 752.745667,696.948547 
	C755.021362,689.766113 757.192383,682.550598 759.508118,675.036255 
	C747.985657,675.036255 737.200012,675.036255 726.222229,675.036255 
	C719.638916,701.038391 713.088135,726.911743 706.537354,752.785095 
	C706.004150,752.752991 705.470886,752.720825 704.937622,752.688721 
	C698.605713,727.621521 692.273743,702.554321 685.668030,676.666260 
M244.682159,742.040833 
	C255.104431,742.040833 265.526703,742.040833 275.871643,742.040833 
	C275.871643,734.308594 275.871643,727.217041 275.871643,719.707397 
	C264.223480,719.707397 252.818420,719.707397 241.300705,719.707397 
	C241.300705,712.557617 241.300705,705.833679 241.300705,698.753540 
	C258.002960,698.753540 274.421600,698.753540 290.942780,698.753540 
	C290.942780,690.670654 290.942780,682.950928 290.942780,675.216797 
	C263.484650,675.216797 236.295883,675.216797 209.228302,675.216797 
	C209.228302,710.124878 209.228302,744.690247 209.228302,779.105469 
	C219.936951,779.105469 230.336472,779.105469 241.018600,779.105469 
	C241.018600,767.832703 241.008835,756.864563 241.028076,745.896362 
	C241.031357,744.030396 240.314865,741.573486 244.682159,742.040833 
M564.162781,714.507202 
	C564.162781,709.557739 564.162781,704.608276 564.162781,699.125549 
	C574.897278,699.125549 585.119934,699.125549 595.496338,699.125549 
	C595.496338,690.829407 595.496338,683.082642 595.496338,675.103027 
	C564.171936,675.103027 533.090576,675.103027 501.766571,675.103027 
	C501.766571,683.100769 501.766571,690.988892 501.766571,699.350952 
	C511.993225,699.350952 521.904968,699.350952 532.177734,699.350952 
	C532.177734,726.253784 532.177734,752.682983 532.177734,779.132996 
	C542.960876,779.132996 553.364990,779.132996 564.162781,779.132996 
	C564.162781,757.735962 564.162781,736.620544 564.162781,714.507202 
M906.000000,700.500000 
	C906.000000,692.063782 906.000000,683.627563 906.000000,675.263794 
	C894.986145,675.263794 884.468628,675.263794 874.025024,675.263794 
	C874.025024,710.093079 874.025024,744.529053 874.025024,779.135376 
	C900.915588,779.135376 927.629456,779.135376 954.534790,779.135376 
	C954.534790,771.253845 954.534790,763.666199 954.534790,755.471863 
	C938.326477,755.471863 922.309998,755.471863 906.000000,755.471863 
	C906.000000,737.077820 906.000000,719.288879 906.000000,700.500000 
M419.844269,569.513916 
	C419.844269,600.746948 419.844269,631.980042 419.844269,663.041870 
	C430.851379,663.041870 441.233185,663.041870 451.542969,663.041870 
	C451.542969,628.113892 451.542969,593.586792 451.542969,559.195496 
	C440.790314,559.195496 430.393127,559.195496 419.844269,559.195496 
	C419.844269,562.547729 419.844269,565.534241 419.844269,569.513916 
M606.954468,676.658081 
	C606.954468,710.860718 606.954468,745.063354 606.954468,779.104492 
	C617.966919,779.104492 628.349426,779.104492 638.777771,779.104492 
	C638.777771,744.260376 638.777771,709.730896 638.777771,674.875610 
	C632.082336,674.875610 625.627197,674.779663 619.176758,674.910400 
	C615.111816,674.992798 611.053772,675.414124 606.954468,676.658081 
M358.153351,455.505737 
	C358.153351,451.393768 358.153351,447.281769 358.153351,443.093384 
	C347.240631,443.093384 336.837585,443.093384 326.302185,443.093384 
	C326.302185,477.929047 326.302185,512.504761 326.302185,547.151367 
	C336.968231,547.151367 347.372742,547.151367 358.153381,547.151367 
	C358.153381,516.761108 358.153381,486.633057 358.153351,455.505737 
z"/>
<path fill="#FCFCFB" opacity="1.000000" stroke="none" 
	d="
M632.461670,603.521057 
	C634.251038,606.458862 635.825012,609.099609 637.398926,611.740417 
	C637.714478,611.656494 638.030029,611.572510 638.345581,611.488586 
	C638.345581,594.158081 638.345581,576.827576 638.345581,559.167114 
	C648.729370,559.167114 658.586975,559.167114 668.673706,559.167114 
	C668.673706,593.864258 668.673706,628.416443 668.673706,663.062866 
	C659.691895,663.062866 650.889954,663.347900 642.118835,662.951782 
	C637.163208,662.728027 634.506714,658.662537 632.101562,654.778076 
	C622.474670,639.229553 612.854431,623.676758 603.222656,608.131226 
	C602.391602,606.789856 601.494263,605.489441 599.755737,604.415649 
	C599.755737,623.914612 599.755737,643.413574 599.755737,663.189392 
	C589.460632,663.189392 579.701782,663.189392 569.598389,663.189392 
	C569.598389,628.574585 569.598389,594.051758 569.598389,559.137085 
	C580.122131,559.137085 590.758057,558.488647 601.232117,559.505859 
	C604.674744,559.840149 608.598877,563.912170 610.750793,567.269714 
	C618.281799,579.020020 625.135315,591.204468 632.461670,603.521057 
z"/>
<path fill="#FEFEFE" opacity="1.000000" stroke="none" 
	d="
M270.707367,485.302856 
	C272.938904,489.035522 274.974365,492.459259 277.757874,497.141266 
	C277.757874,478.332428 277.757874,460.861511 277.757874,443.116058 
	C288.084991,443.116058 297.832153,443.116058 307.925659,443.116058 
	C307.925659,477.613434 307.925659,512.164062 307.925659,546.899231 
	C298.933380,546.899231 289.792786,547.554565 280.839172,546.547485 
	C277.658478,546.189758 274.157104,542.291016 272.129791,539.151306 
	C262.116699,523.644043 252.551971,507.847351 242.817963,492.159637 
	C241.962585,490.781067 241.026642,489.452515 239.391754,486.992889 
	C239.391754,507.742432 239.391754,527.238098 239.391754,547.072632 
	C229.159424,547.072632 219.417236,547.072632 209.296677,547.072632 
	C209.296677,512.593750 209.296677,477.907135 209.296677,442.991425 
	C219.508667,442.991425 229.634491,442.809479 239.748978,443.069397 
	C244.691620,443.196411 247.762665,446.605896 250.157654,450.667480 
	C256.914398,462.126038 263.723083,473.553955 270.707367,485.302856 
z"/>
<path fill="#FCFCFC" opacity="1.000000" stroke="none" 
	d="
M446.004089,755.992249 
	C449.328979,755.986633 452.167511,755.847351 454.989319,756.006165 
	C459.411194,756.255005 462.325378,755.326660 462.436829,749.919312 
	C462.579254,743.008301 462.009949,741.675659 455.677246,740.844543 
	C443.807037,739.286682 431.864716,738.219421 420.042542,736.371338 
	C409.102264,734.661072 404.245209,729.804016 402.418396,719.009644 
	C400.799713,709.444641 400.640717,699.780701 403.583344,690.347412 
	C406.961029,679.519592 412.787628,675.029846 424.024323,674.918640 
	C438.511200,674.775330 453.001251,674.778015 467.488495,674.895691 
	C483.068878,675.022278 487.988983,679.202637 490.422119,694.482788 
	C491.142914,699.009338 491.105469,703.656677 491.433136,708.510376 
	C481.366699,708.510376 471.937958,708.510376 462.544128,708.510376 
	C462.339813,708.152649 462.071350,707.890625 462.044830,707.606018 
	C461.165894,698.168762 461.169342,698.166382 451.500488,698.167053 
	C446.837585,698.167358 442.174225,698.220337 437.511963,698.168152 
	C434.291809,698.132019 431.689056,698.880310 432.049194,702.793518 
	C432.378510,706.372314 430.048096,711.350525 436.451813,712.122559 
	C446.855377,713.376831 457.257812,714.640991 467.659332,715.912292 
	C469.969849,716.194702 472.283600,716.468872 474.580475,716.841614 
	C484.666199,718.478394 489.929321,723.337402 491.799805,733.437622 
	C493.668732,743.529541 493.519257,753.667969 490.824615,763.633972 
	C487.989929,774.117981 482.037659,779.103394 471.071259,779.212097 
	C453.258850,779.388733 435.438324,779.190674 417.627045,778.848022 
	C409.377991,778.689392 403.964783,774.447327 402.299103,766.447571 
	C400.825287,759.369263 400.469788,752.058105 399.575562,744.467773 
	C409.923553,744.467773 419.353882,744.467773 428.956970,744.467773 
	C429.118317,744.727234 429.578522,745.126343 429.594025,745.541992 
	C430.020752,756.987732 430.490936,755.970947 442.013367,755.993835 
	C443.178986,755.996155 444.344604,755.992920 446.004089,755.992249 
z"/>
<path fill="#FCFDFC" opacity="1.000000" stroke="none" 
	d="
M281.900269,559.825928 
	C289.836823,561.473755 293.551056,566.781189 294.884888,573.738525 
	C296.034882,579.736877 296.352386,585.894836 297.084320,592.393860 
	C286.882965,592.393860 277.319214,592.393860 267.750763,592.393860 
	C267.565033,592.105957 267.270752,591.854431 267.241943,591.575562 
	C266.270538,582.169067 266.274200,582.161194 256.731140,582.141968 
	C252.067505,582.132568 247.399277,582.287170 242.741547,582.125305 
	C238.979568,581.994690 237.003372,583.544434 237.180389,587.320251 
	C237.348038,590.895752 235.821579,595.430115 241.731384,596.138184 
	C254.613831,597.681763 267.510437,599.129333 280.361847,600.902039 
	C289.593231,602.175537 295.063232,607.314575 296.848969,616.487061 
	C298.873505,626.886108 298.878021,637.345764 296.036743,647.652527 
	C293.176941,658.026611 287.563019,662.976868 276.810028,663.166382 
	C258.998474,663.480347 241.171463,663.366760 223.359390,663.010864 
	C214.515228,662.834229 209.169601,658.459045 207.441818,649.942017 
	C206.036636,643.015137 205.800858,635.851074 205.006241,628.415649 
	C215.443359,628.415649 224.996613,628.415649 234.531769,628.415649 
	C236.241486,639.992065 236.241486,639.996338 248.173111,639.997986 
	C252.670151,639.998657 257.175018,639.804565 261.662018,640.010620 
	C266.021820,640.210876 267.756683,638.081360 267.700043,634.060181 
	C267.645264,630.170288 268.630585,625.699219 262.648254,625.008240 
	C251.742172,623.748596 240.868286,622.176025 229.943695,621.119446 
	C214.252274,619.601807 207.402725,613.048950 207.087921,597.271606 
	C206.930450,589.379700 207.414719,581.241821 209.231842,573.601257 
	C211.623367,563.545410 218.235977,559.083374 228.608887,558.958313 
	C243.929779,558.773499 259.254639,558.868408 274.577362,558.939941 
	C276.881531,558.950684 279.183258,559.480469 281.900269,559.825928 
z"/>
<path fill="#FBFCFB" opacity="1.000000" stroke="none" 
	d="
M541.985352,639.257080 
	C546.453308,639.257324 550.424011,639.257324 554.695129,639.257324 
	C554.695129,647.341309 554.695129,655.091675 554.695129,663.157471 
	C526.540588,663.157471 498.311676,663.157471 469.710449,663.157471 
	C469.710449,628.562622 469.710449,594.027405 469.710449,559.161377 
	C497.917419,559.161377 526.150024,559.161377 554.693604,559.161377 
	C554.693604,566.719299 554.693604,574.488403 554.693604,582.806274 
	C537.196899,582.806274 519.482300,582.806274 501.556519,582.806274 
	C501.556519,588.437073 501.556519,593.522034 501.556519,598.995361 
	C514.330444,598.995361 526.934021,598.995361 539.902954,598.995361 
	C539.902954,606.591858 539.902954,613.810120 539.902954,621.491333 
	C527.295288,621.491333 514.695007,621.491333 501.715881,621.491333 
	C501.715881,627.478821 501.715881,633.019287 501.715881,639.256897 
	C514.979248,639.256897 528.233704,639.256897 541.985352,639.257080 
z"/>
<path fill="#FCFCFB" opacity="1.000000" stroke="none" 
	d="
M860.999023,583.005981 
	C848.859985,583.005981 837.220642,583.005981 825.526123,583.005981 
	C825.526123,588.482910 825.526123,593.588806 825.526123,599.016235 
	C838.303406,599.016235 850.917542,599.016235 863.905640,599.016235 
	C863.905640,606.540161 863.905640,613.750916 863.905640,621.560669 
	C851.207458,621.560669 838.480774,621.560669 825.558105,621.560669 
	C825.558105,627.590637 825.558105,633.031372 825.558105,638.992981 
	C843.058777,638.992981 860.621521,638.992981 878.575745,638.992981 
	C878.575745,647.350647 878.575745,655.198730 878.575745,663.217346 
	C850.231873,663.217346 821.989990,663.217346 793.501709,663.217346 
	C793.501709,628.426758 793.501709,593.884644 793.501709,559.079102 
	C821.925293,559.079102 850.159363,559.079102 878.676941,559.079102 
	C878.676941,566.872070 878.676941,574.621765 878.676941,583.005981 
	C873.021606,583.005981 867.260193,583.005981 860.999023,583.005981 
z"/>
<path fill="#FCFCFB" opacity="1.000000" stroke="none" 
	d="
M335.172119,703.193481 
	C335.170288,707.296570 335.170288,710.925781 335.170288,714.918396 
	C348.142944,714.918396 360.729401,714.918396 373.704224,714.918396 
	C373.704224,722.500244 373.704224,729.722229 373.704224,737.513794 
	C361.067474,737.513794 348.332001,737.513794 335.406799,737.513794 
	C335.406799,743.656372 335.406799,749.234924 335.406799,755.207153 
	C353.084106,755.207153 370.511505,755.207153 388.288239,755.207153 
	C388.288239,763.152771 388.288239,770.711975 388.288239,778.863159 
	C360.031250,778.863159 331.839050,778.863159 303.343262,778.863159 
	C303.343262,744.557861 303.343262,710.017639 303.343262,675.170288 
	C331.547852,675.170288 359.771210,675.170288 388.323486,675.170288 
	C388.323486,682.885254 388.323486,690.623108 388.323486,699.003357 
	C383.398895,699.003357 378.476562,699.003296 373.554199,699.003418 
	C362.063446,699.003723 350.571655,699.088562 339.082672,698.945557 
	C336.188995,698.909546 334.535767,699.439758 335.172119,703.193481 
z"/>
<path fill="#FDFDFC" opacity="1.000000" stroke="none" 
	d="
M363.000000,558.835815 
	C369.497040,558.881104 375.499847,558.775513 381.489929,559.003601 
	C393.386536,559.456726 400.242340,564.725525 402.654999,576.280029 
	C404.238892,583.865662 404.577789,591.711243 405.518890,599.825073 
	C395.027405,599.825073 385.297211,599.825073 375.272400,599.825073 
	C374.849854,596.124817 374.375305,592.380066 374.006531,588.624939 
	C373.630096,584.792114 371.571136,583.043457 367.743500,583.083984 
	C361.746552,583.147339 355.748383,583.118835 349.750854,583.094299 
	C346.191986,583.079712 343.937531,584.661743 343.764984,588.320862 
	C343.271576,598.784058 342.719635,609.250671 342.576721,619.721252 
	C342.511261,624.517334 343.334473,629.327209 343.784729,634.128113 
	C344.104065,637.533142 345.961365,639.079651 349.425476,639.029724 
	C355.754730,638.938416 362.087616,638.944092 368.416626,639.049805 
	C371.999359,639.109619 373.546417,637.179993 373.939453,633.963257 
	C374.420624,630.025146 374.812439,626.076172 375.264832,621.930664 
	C385.081787,621.930664 394.813385,621.930664 405.916382,621.930664 
	C404.426361,631.534668 403.634827,640.970032 401.358704,650.032593 
	C399.276093,658.324707 392.488251,662.684937 384.204468,662.906067 
	C367.397827,663.354675 350.561951,663.360840 333.755219,662.910950 
	C323.560211,662.638062 317.505005,656.063599 314.164551,646.925476 
	C309.321411,633.676575 309.028442,619.797180 309.646912,605.992554 
	C310.061310,596.743591 311.082855,587.361206 313.272308,578.389771 
	C316.617584,564.682312 324.447357,559.164978 338.509613,558.912964 
	C346.504303,558.769714 354.503082,558.854004 363.000000,558.835815 
z"/>
<path fill="#FDFDFC" opacity="1.000000" stroke="none" 
	d="
M701.080444,560.794922 
	C704.550720,560.104919 707.637451,559.087891 710.736145,559.049988 
	C725.397644,558.870789 740.065796,558.762268 754.725037,559.010742 
	C767.957031,559.235046 774.940308,565.429504 777.023682,578.586060 
	C778.111633,585.456421 778.561157,592.427856 779.343384,599.769775 
	C769.015198,599.769775 759.279663,599.769775 749.182373,599.769775 
	C748.798157,596.385437 748.315369,592.817322 748.006470,589.234131 
	C747.646057,585.053284 745.702026,582.918945 741.279358,583.063171 
	C736.119080,583.231445 730.948547,583.059753 725.782837,583.092896 
	C718.958435,583.136719 717.445618,584.222351 717.185608,591.151306 
	C716.754944,602.624268 716.375305,614.134155 716.818909,625.595764 
	C717.340210,639.062988 717.731079,639.049927 731.239502,639.043884 
	C734.905457,639.042236 738.575500,638.911865 742.236267,639.044067 
	C745.805847,639.172913 747.458130,637.297546 747.869202,634.068359 
	C748.370178,630.132751 748.718201,626.177673 749.158752,621.979614 
	C758.976685,621.979614 768.715759,621.979614 779.832886,621.979614 
	C778.324219,631.526489 777.457520,640.936523 775.221680,650.009155 
	C773.158691,658.380310 766.362244,662.664246 758.090881,662.890198 
	C741.280212,663.349426 724.438904,663.370300 707.628479,662.907959 
	C697.191345,662.620850 691.248108,655.790710 687.901855,646.443726 
	C683.615356,634.470459 682.963562,621.940613 683.443298,609.485779 
	C683.844360,599.072388 685.201111,588.608032 687.194641,578.372681 
	C688.687927,570.705627 692.865356,564.151978 701.080444,560.794922 
z"/>
<path fill="#FCFDFC" opacity="1.000000" stroke="none" 
	d="
M859.701721,769.345764 
	C860.808411,772.702515 861.765747,775.693176 862.849243,779.078125 
	C851.616272,779.078125 840.586914,779.078125 829.085754,779.078125 
	C826.957336,771.914734 824.757935,764.512268 822.549988,757.081055 
	C811.780823,757.081055 801.313904,757.081055 790.369873,757.081055 
	C788.223816,764.383423 786.048035,771.787231 783.861267,779.228210 
	C773.206421,779.228210 762.804810,779.228210 751.868469,779.228210 
	C757.271851,763.023560 762.559021,747.180725 767.836975,731.334839 
	C773.185852,715.276306 778.472168,699.196594 783.892212,683.162170 
	C786.530518,675.357117 788.061523,674.329285 796.133240,674.278809 
	C803.625183,674.231934 811.117859,674.235779 818.609863,674.280823 
	C826.778503,674.329895 828.401367,675.441895 830.945190,683.057861 
	C840.508179,711.689331 850.020874,740.337646 859.701721,769.345764 
M805.017029,705.455017 
	C802.250122,715.020996 799.483215,724.587036 796.655579,734.363098 
	C803.593506,734.363098 809.645996,734.363098 816.222656,734.363098 
	C813.380615,724.467529 810.689331,714.967773 807.833313,705.517822 
	C807.683533,705.022461 806.133362,704.950317 805.017029,705.455017 
z"/>
<path fill="#FDFDFC" opacity="1.000000" stroke="none" 
	d="
M685.804932,677.076660 
	C692.273743,702.554321 698.605713,727.621521 704.937622,752.688721 
	C705.470886,752.720825 706.004150,752.752991 706.537354,752.785095 
	C713.088135,726.911743 719.638916,701.038391 726.222229,675.036255 
	C737.200012,675.036255 747.985657,675.036255 759.508118,675.036255 
	C757.192383,682.550598 755.021362,689.766113 752.745667,696.948547 
	C745.181519,720.822815 737.581177,744.685669 729.991760,768.551880 
	C726.811218,778.553711 724.837646,779.987305 714.250000,779.994080 
	C706.921875,779.998718 699.593018,779.933289 692.265808,780.015137 
	C686.588989,780.078552 682.668091,777.725342 680.922119,772.206970 
	C670.860779,740.405579 660.815613,708.598999 650.785278,676.787781 
	C650.644897,676.342529 650.767700,675.814270 650.767700,674.887451 
	C661.734253,674.887451 672.676025,674.855347 683.616516,674.963745 
	C684.305908,674.970581 684.984436,676.073303 685.804932,677.076660 
z"/>
<path fill="#FEFFFE" opacity="1.000000" stroke="none" 
	d="
M244.200104,742.041260 
	C240.314865,741.573486 241.031357,744.030396 241.028076,745.896362 
	C241.008835,756.864563 241.018600,767.832703 241.018600,779.105469 
	C230.336472,779.105469 219.936951,779.105469 209.228302,779.105469 
	C209.228302,744.690247 209.228302,710.124878 209.228302,675.216797 
	C236.295883,675.216797 263.484650,675.216797 290.942780,675.216797 
	C290.942780,682.950928 290.942780,690.670654 290.942780,698.753540 
	C274.421600,698.753540 258.002960,698.753540 241.300705,698.753540 
	C241.300705,705.833679 241.300705,712.557617 241.300705,719.707397 
	C252.818420,719.707397 264.223480,719.707397 275.871643,719.707397 
	C275.871643,727.217041 275.871643,734.308594 275.871643,742.040833 
	C265.526703,742.040833 255.104431,742.040833 244.200104,742.041260 
z"/>
<path fill="#FDFEFD" opacity="1.000000" stroke="none" 
	d="
M564.162781,715.006165 
	C564.162781,736.620544 564.162781,757.735962 564.162781,779.132996 
	C553.364990,779.132996 542.960876,779.132996 532.177734,779.132996 
	C532.177734,752.682983 532.177734,726.253784 532.177734,699.350952 
	C521.904968,699.350952 511.993225,699.350952 501.766571,699.350952 
	C501.766571,690.988892 501.766571,683.100769 501.766571,675.103027 
	C533.090576,675.103027 564.171936,675.103027 595.496338,675.103027 
	C595.496338,683.082642 595.496338,690.829407 595.496338,699.125549 
	C585.119934,699.125549 574.897278,699.125549 564.162781,699.125549 
	C564.162781,704.608276 564.162781,709.557739 564.162781,715.006165 
z"/>
<path fill="#FDFDFC" opacity="1.000000" stroke="none" 
	d="
M906.000000,701.000000 
	C906.000000,719.288879 906.000000,737.077820 906.000000,755.471863 
	C922.309998,755.471863 938.326477,755.471863 954.534790,755.471863 
	C954.534790,763.666199 954.534790,771.253845 954.534790,779.135376 
	C927.629456,779.135376 900.915588,779.135376 874.025024,779.135376 
	C874.025024,744.529053 874.025024,710.093079 874.025024,675.263794 
	C884.468628,675.263794 894.986145,675.263794 906.000000,675.263794 
	C906.000000,683.627563 906.000000,692.063782 906.000000,701.000000 
z"/>
<path fill="#FDFDFC" opacity="1.000000" stroke="none" 
	d="
M419.844269,569.017334 
	C419.844269,565.534241 419.844269,562.547729 419.844269,559.195496 
	C430.393127,559.195496 440.790314,559.195496 451.542969,559.195496 
	C451.542969,593.586792 451.542969,628.113892 451.542969,663.041870 
	C441.233185,663.041870 430.851379,663.041870 419.844269,663.041870 
	C419.844269,631.980042 419.844269,600.746948 419.844269,569.017334 
z"/>
<path fill="#FFFFFE" opacity="1.000000" stroke="none" 
	d="
M606.973511,676.170776 
	C611.053772,675.414124 615.111816,674.992798 619.176758,674.910400 
	C625.627197,674.779663 632.082336,674.875610 638.777771,674.875610 
	C638.777771,709.730896 638.777771,744.260376 638.777771,779.104492 
	C628.349426,779.104492 617.966919,779.104492 606.954468,779.104492 
	C606.954468,745.063354 606.954468,710.860718 606.973511,676.170776 
z"/>
<path fill="#FEFEFD" opacity="1.000000" stroke="none" 
	d="
M358.153381,456.005371 
	C358.153381,486.633057 358.153381,516.761108 358.153381,547.151367 
	C347.372742,547.151367 336.968231,547.151367 326.302185,547.151367 
	C326.302185,512.504761 326.302185,477.929047 326.302185,443.093384 
	C336.837585,443.093384 347.240631,443.093384 358.153351,443.093384 
	C358.153351,447.281769 358.153351,451.393768 358.153381,456.005371 
z"/>
<path fill="#1B1F19" opacity="1.000000" stroke="none" 
	d="
M805.126099,705.068115 
	C806.133362,704.950317 807.683533,705.022461 807.833313,705.517822 
	C810.689331,714.967773 813.380615,724.467529 816.222656,734.363098 
	C809.645996,734.363098 803.593506,734.363098 796.655579,734.363098 
	C799.483215,724.587036 802.250122,715.020996 805.126099,705.068115 
z"/>
</svg>